<svg width="119" height="35" viewBox="0 0 119 35" fill="none" xmlns="http://www.w3.org/2000/svg">
<path d="M117.34 30.8683C117.34 31.3088 117.254 31.745 117.085 32.152C116.916 32.5589 116.669 32.9286 116.357 33.2399C116.045 33.5512 115.675 33.7981 115.268 33.9663C114.861 34.1346 114.424 34.221 113.984 34.2205H4.13926C3.24896 34.2214 2.39475 33.8688 1.76448 33.2402C1.1342 32.6115 0.779481 31.7584 0.77832 30.8683V4.13584C0.77948 3.24538 1.13406 2.39177 1.76421 1.76245C2.39436 1.13313 3.24856 0.779528 4.13926 0.779297H113.983C114.424 0.779297 114.86 0.866123 115.268 1.03482C115.675 1.20351 116.045 1.45076 116.357 1.76246C116.668 2.07416 116.916 2.44419 117.084 2.85142C117.253 3.25865 117.34 3.6951 117.34 4.13584L117.34 30.8683Z" fill="white"/>
<path d="M113.985 35H4.14011C3.04337 34.9998 1.99151 34.5646 1.21534 33.7899C0.439169 33.0153 0.0020868 31.9644 0 30.868L0 4.13639C0.00162247 3.03939 0.438416 1.98783 1.21456 1.21238C1.9907 0.436936 3.04282 0.000925905 4.14011 0L113.984 0C115.081 0.00138791 116.133 0.437547 116.909 1.21289C117.685 1.98824 118.122 3.03953 118.124 4.13639V30.868C118.126 33.1471 116.265 35 113.985 35Z" fill="#A6A6A6"/>
<path d="M117.34 30.8683C117.34 31.3088 117.254 31.745 117.085 32.152C116.916 32.5589 116.669 32.9286 116.357 33.2399C116.045 33.5512 115.675 33.7981 115.268 33.9663C114.861 34.1346 114.424 34.221 113.984 34.2205H4.13926C3.24896 34.2214 2.39475 33.8688 1.76448 33.2402C1.1342 32.6115 0.779481 31.7584 0.77832 30.8683V4.13584C0.77948 3.24538 1.13406 2.39177 1.76421 1.76245C2.39436 1.13313 3.24856 0.779528 4.13926 0.779297H113.983C114.424 0.779297 114.86 0.866123 115.268 1.03482C115.675 1.20351 116.045 1.45076 116.357 1.76246C116.668 2.07416 116.916 2.44419 117.084 2.85142C117.253 3.25865 117.34 3.6951 117.34 4.13584L117.34 30.8683Z" fill="black"/>
<path d="M26.3745 17.3158C26.3491 14.4949 28.6849 13.1225 28.7917 13.0586C27.4689 11.1305 25.4185 10.867 24.698 10.846C22.9759 10.6648 21.3055 11.8762 20.4283 11.8762C19.5336 11.8762 18.1827 10.8635 16.7268 10.8933C14.8533 10.9222 13.1006 12.0066 12.1394 13.6906C10.1555 17.1241 11.6351 22.1699 13.5357 24.9453C14.4865 26.3054 15.5975 27.8222 17.0516 27.7688C18.4743 27.711 19.0057 26.8629 20.7225 26.8629C22.4235 26.8629 22.9225 27.7688 24.4056 27.7347C25.9324 27.711 26.8937 26.3693 27.8112 24.9978C28.9099 23.4407 29.3511 21.9056 29.3686 21.8268C29.3336 21.8145 26.4043 20.696 26.3745 17.3158ZM23.573 9.02027C24.3382 8.06363 24.8617 6.76214 24.7164 5.44141C23.6089 5.49042 22.2239 6.20724 21.4264 7.14287C20.7207 7.96735 20.0904 9.31872 20.2532 10.5896C21.4973 10.6823 22.7746 9.96202 23.573 9.02027Z" fill="white"/>
<path d="M113.984 0H55.1476L78.1927 35H113.984C115.081 34.9991 116.133 34.5633 116.909 33.7882C117.685 33.0132 118.122 31.9621 118.124 30.8654V4.13639C118.122 3.03946 117.685 1.98804 116.909 1.21264C116.133 0.437242 115.081 0.001157 113.984 0Z" fill="url(#paint0_linear_5182_2344)"/>
<path d="M46.9813 27.574H44.9931L43.9041 24.1527H40.1185L39.0811 27.574H37.1454L40.8968 15.9263H43.2133L46.9813 27.574ZM43.5758 22.7173L42.5909 19.6759C42.4867 19.3651 42.2906 18.6334 42.0034 17.4816H41.9684C41.8528 17.977 41.6681 18.7087 41.4151 19.6759L40.4468 22.7173H43.5758ZM56.6098 23.2713C56.6098 24.6997 56.222 25.8288 55.4454 26.6577C54.7503 27.3955 53.8862 27.764 52.8558 27.764C51.743 27.764 50.9429 27.3675 50.457 26.5728V30.9796H48.5905V21.9357C48.5905 21.0386 48.5668 20.1187 48.5213 19.1752H50.1628L50.267 20.5065H50.302C50.9245 19.5034 51.8691 19.0019 53.1368 19.0019C54.1278 19.0019 54.9551 19.3932 55.617 20.1765C56.278 20.9616 56.6098 21.9926 56.6098 23.2713ZM54.7083 23.3396C54.7083 22.5221 54.5244 21.8482 54.155 21.3169C53.7514 20.7647 53.2094 20.4881 52.5301 20.4881C52.0696 20.4881 51.6511 20.6421 51.2773 20.9458C50.9026 21.2522 50.6575 21.6522 50.5428 22.1475C50.4916 22.3328 50.4625 22.5235 50.4561 22.7156V24.1168C50.4561 24.7269 50.6434 25.2424 51.0181 25.6643C51.3928 26.0844 51.8796 26.2953 52.4784 26.2953C53.1814 26.2953 53.7286 26.0231 54.1199 25.4831C54.5122 24.9413 54.7083 24.2271 54.7083 23.3396ZM66.2724 23.2713C66.2724 24.6997 65.8845 25.8288 65.108 26.6577C64.412 27.3955 63.5488 27.764 62.5175 27.764C61.4047 27.764 60.6046 27.3675 60.1187 26.5728V30.9796H58.2522V21.9357C58.2522 21.0386 58.2285 20.1187 58.183 19.1752H59.8245L59.9287 20.5065H59.9637C60.5853 19.5034 61.5299 19.0019 62.7985 19.0019C63.7887 19.0019 64.616 19.3932 65.2796 20.1765C65.9397 20.9616 66.2724 21.9926 66.2724 23.2713ZM64.37 23.3396C64.37 22.5221 64.1852 21.8482 63.8158 21.3169C63.4122 20.7647 62.872 20.4881 62.1927 20.4881C61.7322 20.4881 61.3137 20.6421 60.9381 20.9458C60.5634 21.2522 60.3192 21.6522 60.2045 22.1475C60.1476 22.3786 60.1169 22.5668 60.1169 22.7156V24.1168C60.1169 24.7269 60.3052 25.2424 60.6781 25.6643C61.0528 26.0835 61.5396 26.2953 62.1401 26.2953C62.844 26.2953 63.3912 26.0231 63.7817 25.4831C64.1739 24.9413 64.37 24.2271 64.37 23.3396ZM77.0757 24.3068C77.0757 25.2984 76.729 26.1045 76.04 26.7268C75.2819 27.406 74.2234 27.7465 72.8664 27.7465C71.6128 27.7465 70.6077 27.5049 69.8496 27.0209L70.2812 25.4656C71.0997 25.9505 71.9988 26.192 72.9776 26.192C73.6815 26.192 74.2287 26.0327 74.6191 25.7168C75.0105 25.3999 75.2083 24.9763 75.2083 24.4477C75.2083 23.9742 75.0446 23.5777 74.7233 23.2547C74.4002 22.9326 73.8662 22.6324 73.1159 22.3567C71.0761 21.5961 70.0553 20.4837 70.0553 19.0203C70.0553 18.0645 70.416 17.2821 71.1356 16.6703C71.8553 16.0594 72.8095 15.7539 73.9967 15.7539C75.0569 15.7539 75.9402 15.9386 76.6415 16.3071L76.1731 17.8282C75.513 17.4711 74.768 17.2926 73.9345 17.2926C73.2761 17.2926 72.7596 17.4545 72.3902 17.7766C72.0794 18.0645 71.9218 18.4155 71.9218 18.8321C71.9218 19.2916 72.1013 19.6732 72.4585 19.9726C72.7684 20.2483 73.3339 20.5485 74.1516 20.8706C75.1549 21.2749 75.8921 21.7458 76.3639 22.2867C76.8393 22.8276 77.0757 23.5024 77.0757 24.3068ZM83.2627 20.5756H81.2053V24.6534C81.2053 25.6905 81.5677 26.2078 82.2944 26.2078C82.6279 26.2078 82.9046 26.1798 83.1235 26.1211L83.1751 27.5381C82.8074 27.6756 82.3233 27.7447 81.7236 27.7447C80.9864 27.7447 80.4104 27.5198 79.9945 27.0699C79.5804 26.62 79.3721 25.8664 79.3721 24.8056V20.5721H78.1464V19.1717H79.3721V17.6339L81.2053 17.0808V19.1717H83.2627V20.5756ZM92.5269 23.3055C92.5269 24.5965 92.1575 25.6564 91.4203 26.4852C90.649 27.3386 89.623 27.764 88.3439 27.764C87.1095 27.764 86.1281 27.3552 85.3962 26.5386C84.6643 25.7203 84.2983 24.6892 84.2983 23.4455C84.2983 22.144 84.6765 21.078 85.4303 20.2491C86.1859 19.4194 87.2032 19.0045 88.4822 19.0045C89.7149 19.0045 90.705 19.4142 91.4544 20.2316C92.1706 21.0246 92.5269 22.0486 92.5269 23.3055ZM90.5921 23.3484C90.5921 22.579 90.4258 21.9191 90.0922 21.3668C89.7009 20.6999 89.1406 20.3664 88.4148 20.3664C87.6672 20.3664 87.0937 20.6999 86.7033 21.3668C86.3688 21.9191 86.2025 22.5904 86.2025 23.3834C86.2025 24.1536 86.3688 24.8153 86.7033 25.3658C87.1069 26.0327 87.6698 26.3662 88.399 26.3662C89.1126 26.3662 89.672 26.0257 90.0765 25.3492C90.4196 24.7838 90.5921 24.1195 90.5921 23.3484ZM98.5965 20.8163C98.4024 20.7813 98.2055 20.764 98.0082 20.7647C97.3516 20.7647 96.8438 21.0115 96.4867 21.5086C96.1767 21.9462 96.0209 22.4994 96.0209 23.1672V27.574H94.1544V21.8202C94.1561 20.9385 94.138 20.0569 94.1001 19.1761H95.7259L95.7942 20.783H95.8458C96.0437 20.2308 96.3536 19.7853 96.7791 19.4518C97.1685 19.1604 97.6417 19.0026 98.1282 19.0019C98.3006 19.0019 98.4565 19.0142 98.5948 19.0361L98.5965 20.8163ZM106.944 22.9773C106.949 23.2609 106.926 23.5444 106.876 23.8236H101.276C101.297 24.6534 101.569 25.2888 102.089 25.7264C102.561 26.1168 103.171 26.3128 103.92 26.3128C104.749 26.3128 105.506 26.1815 106.186 25.9163L106.478 27.2108C105.683 27.5574 104.745 27.7298 103.662 27.7298C102.359 27.7298 101.337 27.3465 100.593 26.5815C99.8502 25.8157 99.4781 24.7864 99.4781 23.4972C99.4781 22.2316 99.824 21.1769 100.516 20.3358C101.241 19.4378 102.221 18.9888 103.454 18.9888C104.664 18.9888 105.581 19.4378 106.204 20.3358C106.696 21.0474 106.944 21.9296 106.944 22.9773ZM105.164 22.4933C105.177 21.9392 105.055 21.4622 104.802 21.0587C104.479 20.5388 103.982 20.2798 103.315 20.2798C102.705 20.2798 102.208 20.5327 101.83 21.0404C101.519 21.4438 101.334 21.9287 101.277 22.4915L105.164 22.4933Z" fill="white"/>
<path d="M39.5799 11.8078C39.0608 11.8078 38.6117 11.7824 38.2379 11.7395V6.1082C38.7607 6.02746 39.289 5.98766 39.8181 5.98917C41.9586 5.98917 42.9444 7.04209 42.9444 8.75843C42.9444 10.7382 41.78 11.8078 39.5799 11.8078ZM39.8934 6.71125C39.6045 6.71125 39.3585 6.72875 39.1545 6.77076V11.0516C39.2648 11.0691 39.4766 11.0769 39.7743 11.0769C41.1768 11.0769 41.9752 10.2787 41.9752 8.78382C41.9752 7.45082 41.253 6.71125 39.8934 6.71125ZM46.0164 11.8507C44.81 11.8507 44.0282 10.95 44.0282 9.72733C44.0282 8.45297 44.8267 7.54447 46.0847 7.54447C47.2736 7.54447 48.0729 8.40221 48.0729 9.65993C48.0729 10.95 47.2491 11.8507 46.0164 11.8507ZM46.0514 8.21491C45.3887 8.21491 44.9641 8.83458 44.9641 9.70107C44.9641 10.5509 45.3975 11.1706 46.0427 11.1706C46.6879 11.1706 47.1213 10.508 47.1213 9.68356C47.1213 8.84333 46.6967 8.21491 46.0514 8.21491ZM54.9524 7.62937L53.661 11.757H52.8197L52.2848 9.96452C52.1518 9.52606 52.0411 9.08116 51.953 8.63152H51.9355C51.8681 9.0814 51.7403 9.53215 51.6046 9.96452L51.0355 11.757H50.1854L48.9703 7.62937H49.9131L50.3806 9.59166C50.491 10.059 50.5838 10.5002 50.6608 10.9168H50.6783C50.7457 10.5693 50.856 10.1352 51.018 9.60042L51.6046 7.63025H52.3522L52.9134 9.5584C53.0491 10.0258 53.1594 10.4844 53.2452 10.9177H53.2697C53.3292 10.4932 53.4229 10.0424 53.5499 9.5584L54.0515 7.63025L54.9524 7.62937ZM59.7062 11.757H58.7887V9.38686C58.7887 8.65691 58.5085 8.29105 57.9561 8.29105C57.4124 8.29105 57.0386 8.75843 57.0386 9.30196V11.757H56.1211V8.8092C56.1211 8.44422 56.1124 8.05299 56.087 7.6285H56.8942L56.9371 8.26567H56.9624C57.2093 7.82455 57.7101 7.54447 58.2713 7.54447C59.138 7.54447 59.707 8.20703 59.707 9.28533L59.7062 11.757ZM62.2363 11.757H61.3179V5.73535H62.2363V11.757ZM65.5815 11.8507C64.3759 11.8507 63.5933 10.95 63.5933 9.72733C63.5933 8.45297 64.3917 7.54447 65.6489 7.54447C66.8386 7.54447 67.6371 8.40221 67.6371 9.65993C67.638 10.95 66.8133 11.8507 65.5815 11.8507ZM65.6156 8.21491C64.9529 8.21491 64.5283 8.83458 64.5283 9.70107C64.5283 10.5509 64.9625 11.1706 65.606 11.1706C66.2521 11.1706 66.6846 10.508 66.6846 9.68356C66.6854 8.84333 66.2617 8.21491 65.6156 8.21491ZM71.2545 11.757L71.188 11.2818H71.1635C70.8833 11.6642 70.4745 11.8507 69.9562 11.8507C69.2164 11.8507 68.6911 11.3325 68.6911 10.6358C68.6911 9.61705 69.5745 9.09015 71.1039 9.09015V9.014C71.1039 8.47048 70.8159 8.19828 70.2469 8.19828C69.8398 8.19828 69.4826 8.30068 69.1683 8.50461L68.9818 7.90157C69.3635 7.66351 69.8398 7.54447 70.3992 7.54447C71.4778 7.54447 72.0223 8.11338 72.0223 9.25207V10.7724C72.0223 11.189 72.0407 11.5119 72.0818 11.7579L71.2545 11.757ZM71.1285 9.70107C70.1094 9.70107 69.5981 9.94789 69.5981 10.5334C69.5981 10.9667 69.8617 11.1785 70.2276 11.1785C70.6942 11.1785 71.1285 10.8223 71.1285 10.3382V9.70107ZM76.4776 11.757L76.4347 11.0945H76.4093C76.1458 11.5951 75.7028 11.8507 75.0838 11.8507C74.0884 11.8507 73.3513 10.9754 73.3513 9.74396C73.3513 8.45297 74.1156 7.5436 75.1591 7.5436C75.7116 7.5436 76.1029 7.73003 76.3235 8.10463H76.3419V5.73535H77.2603V10.6446C77.2603 11.0437 77.2699 11.4174 77.2944 11.757H76.4776ZM76.3419 9.32822C76.3419 8.75056 75.9593 8.2578 75.3754 8.2578C74.6951 8.2578 74.2793 8.86084 74.2793 9.70982C74.2793 10.5422 74.7109 11.112 75.357 11.112C75.9339 11.112 76.3419 10.6104 76.3419 10.0162V9.32822ZM83.083 11.8507C81.8775 11.8507 81.0957 10.95 81.0957 9.72733C81.0957 8.45297 81.8941 7.54447 83.1513 7.54447C84.3411 7.54447 85.1395 8.40221 85.1395 9.65993C85.1404 10.95 84.3166 11.8507 83.083 11.8507ZM83.1172 8.21491C82.4553 8.21491 82.0307 8.83458 82.0307 9.70107C82.0307 10.5509 82.4641 11.1706 83.1084 11.1706C83.7545 11.1706 84.187 10.508 84.187 9.68356C84.1888 8.84333 83.7641 8.21491 83.1172 8.21491ZM90.0737 11.757H89.1553V9.38686C89.1553 8.65691 88.8752 8.29105 88.3227 8.29105C87.7791 8.29105 87.4061 8.75843 87.4061 9.30196V11.757H86.4877V8.8092C86.4877 8.44422 86.479 8.05299 86.4536 7.6285H87.2608L87.3037 8.26567H87.3291C87.5751 7.82455 88.0767 7.5436 88.637 7.5436C89.5037 7.5436 90.0737 8.20616 90.0737 9.28445V11.757ZM96.2466 8.31731H95.2372V10.3216C95.2372 10.8319 95.414 11.0866 95.7712 11.0866C95.9332 11.0866 96.0689 11.0691 96.1783 11.0437L96.2037 11.7404C96.026 11.8086 95.7879 11.8428 95.492 11.8428C94.7688 11.8428 94.3363 11.4437 94.3363 10.3986V8.31731H93.734V7.62937H94.3363V6.87316L95.2372 6.60096V7.6285H96.2466V8.31731ZM101.104 11.757H100.187V9.40436C100.187 8.66566 99.9078 8.29193 99.3545 8.29193C98.8792 8.29193 98.4362 8.61489 98.4362 9.2687V11.757H97.5196V5.73535H98.4362V8.21491H98.4546C98.7435 7.76503 99.1619 7.5436 99.696 7.5436C100.57 7.5436 101.104 8.22279 101.104 9.30196V11.757ZM106.08 9.91375H103.327C103.344 10.6953 103.861 11.1365 104.628 11.1365C105.035 11.1365 105.409 11.0682 105.74 10.9413L105.883 11.5785C105.492 11.7483 105.033 11.8332 104.498 11.8332C103.207 11.8332 102.442 11.0174 102.442 9.75271C102.442 8.48711 103.225 7.53572 104.395 7.53572C105.45 7.53572 106.111 8.31731 106.111 9.49801C106.117 9.63735 106.107 9.7769 106.08 9.91375ZM105.239 9.25995C105.239 8.62277 104.917 8.1729 104.331 8.1729C103.804 8.1729 103.387 8.63152 103.327 9.25995H105.239Z" fill="white"/>
<defs>
<linearGradient id="paint0_linear_5182_2344" x1="86.6347" y1="35.0929" x2="86.6347" y2="-91.134" gradientUnits="userSpaceOnUse">
<stop stop-color="#1A1A1A" stop-opacity="0.1"/>
<stop offset="0.123" stop-color="#212121" stop-opacity="0.151"/>
<stop offset="0.308" stop-color="#353535" stop-opacity="0.227"/>
<stop offset="0.532" stop-color="#575757" stop-opacity="0.318"/>
<stop offset="0.783" stop-color="#858585" stop-opacity="0.421"/>
<stop offset="1" stop-color="#B3B3B3" stop-opacity="0.51"/>
</linearGradient>
</defs>
</svg>
