<svg width="119" height="35" viewBox="0 0 119 35" fill="none" xmlns="http://www.w3.org/2000/svg">
<path d="M113.72 34.9907H4.37383C1.92449 34.9907 0 33.0662 0 30.6168V4.37383C0 1.92449 1.92449 0 4.37383 0H113.72C116.169 0 118.093 1.92449 118.093 4.37383V30.6168C118.093 33.0662 116.169 34.9907 113.72 34.9907Z" fill="black"/>
<path d="M113.72 0.699813C115.732 0.699813 117.394 2.36187 117.394 4.37383V30.6168C117.394 32.6288 115.732 34.2909 113.72 34.2909H4.37383C2.36187 34.2909 0.699813 32.6288 0.699813 30.6168V4.37383C0.699813 2.36187 2.36187 0.699813 4.37383 0.699813H113.72ZM113.72 0H4.37383C1.92449 0 0 2.01196 0 4.37383V30.6168C0 33.0662 1.92449 34.9907 4.37383 34.9907H113.72C116.169 34.9907 118.093 33.0662 118.093 30.6168V4.37383C118.093 2.01196 116.169 0 113.72 0Z" fill="#A6A6A6"/>
<path d="M41.4634 8.92189C41.4634 9.6217 41.2885 10.234 40.8511 10.6714C40.3262 11.1963 39.7139 11.4587 38.9266 11.4587C38.1393 11.4587 37.527 11.1963 37.0021 10.6714C36.4773 10.1466 36.2148 9.53422 36.2148 8.74693C36.2148 7.95964 36.4773 7.34731 37.0021 6.82245C37.527 6.29759 38.1393 6.03516 38.9266 6.03516C39.2765 6.03516 39.6264 6.12263 39.9763 6.29759C40.3262 6.47254 40.5887 6.64749 40.7636 6.90992L40.3262 7.34731C39.9763 6.90992 39.539 6.73497 38.9266 6.73497C38.4018 6.73497 37.8769 6.90992 37.527 7.34731C37.0896 7.69721 36.9147 8.22207 36.9147 8.83441C36.9147 9.44675 37.0896 9.97161 37.527 10.3215C37.9644 10.6714 38.4018 10.9338 38.9266 10.9338C39.539 10.9338 39.9763 10.7589 40.4137 10.3215C40.6762 10.0591 40.8511 9.70918 40.8511 9.27179H38.9266V8.57198H41.4634V8.92189ZM45.4874 6.73497H43.1255V8.39703H45.3124V9.00936H43.1255V10.6714H45.4874V11.3712H42.4257V6.12263H45.4874V6.73497ZM48.3741 11.3712H47.6743V6.73497H46.1872V6.12263H49.8612V6.73497H48.3741V11.3712ZM52.398 11.3712V6.12263H53.0978V11.3712H52.398ZM56.072 11.3712H55.3722V6.73497H53.8851V6.12263H57.4717V6.73497H55.9846V11.3712H56.072ZM64.3823 10.6714C63.8575 11.1963 63.2451 11.4587 62.4578 11.4587C61.6705 11.4587 61.0582 11.1963 60.5333 10.6714C60.0085 10.1466 59.7461 9.53422 59.7461 8.74693C59.7461 7.95964 60.0085 7.34731 60.5333 6.82245C61.0582 6.29759 61.6705 6.03516 62.4578 6.03516C63.2451 6.03516 63.8575 6.29759 64.3823 6.82245C64.9072 7.34731 65.1696 7.95964 65.1696 8.74693C65.1696 9.53422 64.9072 10.1466 64.3823 10.6714ZM61.0582 10.234C61.4081 10.5839 61.933 10.8464 62.4578 10.8464C62.9827 10.8464 63.5075 10.6714 63.8575 10.234C64.2074 9.88413 64.4698 9.35927 64.4698 8.74693C64.4698 8.1346 64.2948 7.60974 63.8575 7.25983C63.5075 6.90992 62.9827 6.64749 62.4578 6.64749C61.933 6.64749 61.4081 6.82245 61.0582 7.25983C60.7083 7.60974 60.4459 8.1346 60.4459 8.74693C60.4459 9.35927 60.6208 9.88413 61.0582 10.234ZM66.1318 11.3712V6.12263H66.9191L69.456 10.234V6.12263H70.1558V11.3712H69.456L66.7442 7.08488V11.3712H66.1318Z" fill="white"/>
<path d="M59.5718 19.0694C57.4724 19.0694 55.8103 20.644 55.8103 22.8309C55.8103 24.9303 57.4724 26.5924 59.5718 26.5924C61.6713 26.5924 63.3333 25.0178 63.3333 22.8309C63.3333 20.5565 61.6713 19.0694 59.5718 19.0694ZM59.5718 25.0178C58.4346 25.0178 57.4724 24.0556 57.4724 22.7434C57.4724 21.4313 58.4346 20.469 59.5718 20.469C60.709 20.469 61.6713 21.3438 61.6713 22.7434C61.6713 24.0556 60.709 25.0178 59.5718 25.0178ZM51.4365 19.0694C49.337 19.0694 47.675 20.644 47.675 22.8309C47.675 24.9303 49.337 26.5924 51.4365 26.5924C53.5359 26.5924 55.198 25.0178 55.198 22.8309C55.198 20.5565 53.5359 19.0694 51.4365 19.0694ZM51.4365 25.0178C50.2993 25.0178 49.3371 24.0556 49.3371 22.7434C49.3371 21.4313 50.2993 20.469 51.4365 20.469C52.5737 20.469 53.5359 21.3438 53.5359 22.7434C53.5359 24.0556 52.5737 25.0178 51.4365 25.0178ZM41.7266 20.2066V21.7812H45.4881C45.4006 22.656 45.0507 23.3558 44.6133 23.7932C44.0885 24.318 43.2137 24.9303 41.7266 24.9303C39.3647 24.9303 37.6152 23.0933 37.6152 20.7315C37.6152 18.3696 39.4522 16.5326 41.7266 16.5326C42.9513 16.5326 43.9135 17.0574 44.6133 17.6698L45.7505 16.5326C44.7883 15.6578 43.5636 14.958 41.8141 14.958C38.6649 14.958 35.9531 17.5823 35.9531 20.7315C35.9531 23.8806 38.6649 26.5049 41.8141 26.5049C43.5636 26.5049 44.7883 25.9801 45.838 24.8429C46.8877 23.7932 47.2376 22.306 47.2376 21.1689C47.2376 20.8189 47.2376 20.469 47.1501 20.2066H41.7266ZM81.441 21.4313C81.0911 20.5565 80.2163 19.0694 78.2918 19.0694C76.3673 19.0694 74.7927 20.5565 74.7927 22.8309C74.7927 24.9303 76.3673 26.5924 78.4668 26.5924C80.1288 26.5924 81.1785 25.5427 81.5284 24.9303L80.3038 24.0556C79.8664 24.6679 79.3415 25.1053 78.4668 25.1053C77.592 25.1053 77.0671 24.7554 76.6298 23.9681L81.6159 21.8687L81.441 21.4313ZM76.3673 22.656C76.3673 21.2563 77.5045 20.469 78.2918 20.469C78.9041 20.469 79.5165 20.8189 79.6914 21.2563L76.3673 22.656ZM72.2559 26.2425H73.918V15.3079H72.2559V26.2425ZM69.6316 19.8567C69.1942 19.4193 68.4944 18.9819 67.6197 18.9819C65.7827 18.9819 64.0331 20.644 64.0331 22.7434C64.0331 24.8429 65.6952 26.4175 67.6197 26.4175C68.4944 26.4175 69.1942 25.9801 69.5441 25.5427H69.6316V26.0675C69.6316 27.4672 68.8443 28.2545 67.6197 28.2545C66.6574 28.2545 65.9576 27.5546 65.7826 26.9423L64.383 27.5546C64.8204 28.5169 65.8701 29.7416 67.7071 29.7416C69.6316 29.7416 71.2062 28.6044 71.2062 25.8926V19.2444H69.6316V19.8567ZM67.7071 25.0178C66.5699 25.0178 65.6077 24.0556 65.6077 22.7434C65.6077 21.4313 66.5699 20.469 67.7071 20.469C68.8443 20.469 69.7191 21.4313 69.7191 22.7434C69.7191 24.0556 68.8443 25.0178 67.7071 25.0178ZM89.0514 15.3079H85.115V26.2425H86.777V22.1311H89.0514C90.8884 22.1311 92.638 20.8189 92.638 18.7195C92.638 16.6201 90.8884 15.3079 89.0514 15.3079ZM89.1389 20.5565H86.777V16.795H89.1389C90.3636 16.795 91.0634 17.8447 91.0634 18.632C90.9759 19.5943 90.2761 20.5565 89.1389 20.5565ZM99.1987 18.9819C97.974 18.9819 96.7494 19.5068 96.312 20.644L97.7991 21.2563C98.149 20.644 98.6739 20.469 99.2862 20.469C100.161 20.469 100.948 20.9939 101.036 21.8687V21.9561C100.773 21.7812 100.073 21.5188 99.3737 21.5188C97.7991 21.5188 96.2245 22.3935 96.2245 23.9681C96.2245 25.4552 97.5367 26.4175 98.9363 26.4175C100.073 26.4175 100.598 25.8926 101.036 25.3677H101.123V26.2425H102.698V22.0436C102.523 20.1191 101.036 18.9819 99.1987 18.9819ZM99.0238 25.0178C98.4989 25.0178 97.7116 24.7554 97.7116 24.0556C97.7116 23.1808 98.6739 22.9184 99.4611 22.9184C100.161 22.9184 100.511 23.0933 100.948 23.2683C100.773 24.318 99.8985 25.0178 99.0238 25.0178ZM108.209 19.2444L106.372 23.9681H106.284L104.36 19.2444H102.61L105.497 25.8926L103.835 29.5666H105.497L109.958 19.2444H108.209ZM93.5127 26.2425H95.1748V15.3079H93.5127V26.2425Z" fill="white"/>
<path d="M9.09698 6.56055C8.83455 6.82298 8.74707 7.26036 8.74707 7.78522V27.1176C8.74707 27.6424 8.92202 28.0798 9.18445 28.3422L9.27193 28.4297L20.119 17.5826V17.4077L9.09698 6.56055Z" fill="url(#paint0_linear_5182_2331)"/>
<path d="M23.6188 21.2568L20.0322 17.6703V17.4078L23.6188 13.8213L23.7062 13.9088L27.9926 16.3581C29.2173 17.0579 29.2173 18.1951 27.9926 18.8949L23.6188 21.2568Z" fill="url(#paint1_linear_5182_2331)"/>
<path d="M23.7055 21.1692L20.0315 17.4952L9.09692 28.4298C9.53431 28.8671 10.1466 28.8671 10.9339 28.5172L23.7055 21.1692Z" fill="url(#paint2_linear_5182_2331)"/>
<path d="M23.7053 13.8216L10.9337 6.561C10.1464 6.12361 9.53406 6.21109 9.09668 6.64847L20.0313 17.4956L23.7053 13.8216Z" fill="url(#paint3_linear_5182_2331)"/>
<path opacity="0.2" d="M23.618 21.0819L10.9339 28.255C10.2341 28.6924 9.62178 28.6049 9.1844 28.255L9.09692 28.3425L9.1844 28.4299C9.62178 28.7799 10.2341 28.8673 10.9339 28.4299L23.618 21.0819Z" fill="black"/>
<path opacity="0.12" d="M9.09698 28.2547C8.83455 27.9923 8.74707 27.5549 8.74707 27.0301V27.1176C8.74707 27.6424 8.92202 28.0798 9.18445 28.3422V28.2547H9.09698ZM27.9919 18.6323L23.6181 21.0817L23.7056 21.1691L27.9919 18.7198C28.6043 18.3699 28.8667 17.9325 28.8667 17.4951C28.8667 17.9325 28.5168 18.2824 27.9919 18.6323Z" fill="black"/>
<path opacity="0.25" d="M10.934 6.64806L27.9919 16.358C28.5168 16.7079 28.8667 17.0578 28.8667 17.4952C28.8667 17.0578 28.6043 16.6204 27.9919 16.2705L10.934 6.56058C9.70931 5.86077 8.74707 6.38563 8.74707 7.78525V7.87273C8.74707 6.56058 9.70931 5.94824 10.934 6.64806Z" fill="white"/>
<defs>
<linearGradient id="paint0_linear_5182_2331" x1="19.0693" y1="7.61901" x2="4.3881" y2="22.2993" gradientUnits="userSpaceOnUse">
<stop stop-color="#00A0FF"/>
<stop offset="0.007" stop-color="#00A1FF"/>
<stop offset="0.26" stop-color="#00BEFF"/>
<stop offset="0.512" stop-color="#00D2FF"/>
<stop offset="0.76" stop-color="#00DFFF"/>
<stop offset="1" stop-color="#00E3FF"/>
</linearGradient>
<linearGradient id="paint1_linear_5182_2331" x1="29.5969" y1="17.4962" x2="8.4302" y2="17.4962" gradientUnits="userSpaceOnUse">
<stop stop-color="#FFE000"/>
<stop offset="0.409" stop-color="#FFBD00"/>
<stop offset="0.775" stop-color="#FFA500"/>
<stop offset="1" stop-color="#FF9C00"/>
</linearGradient>
<linearGradient id="paint2_linear_5182_2331" x1="21.7172" y1="19.5036" x2="1.80924" y2="39.4116" gradientUnits="userSpaceOnUse">
<stop stop-color="#FF3A44"/>
<stop offset="1" stop-color="#C31162"/>
</linearGradient>
<linearGradient id="paint3_linear_5182_2331" x1="6.38228" y1="0.154204" x2="15.2725" y2="9.04445" gradientUnits="userSpaceOnUse">
<stop stop-color="#32A071"/>
<stop offset="0.069" stop-color="#2DA771"/>
<stop offset="0.476" stop-color="#15CF74"/>
<stop offset="0.801" stop-color="#06E775"/>
<stop offset="1" stop-color="#00F076"/>
</linearGradient>
</defs>
</svg>
