<svg width="129" height="34" viewBox="0 0 129 34" fill="none" xmlns="http://www.w3.org/2000/svg">
<path d="M11 11C11 4.92487 6.07513 0 0 0H11V11Z" fill="#2EA850"/>
<path d="M11 0H118V24C118 29.5228 113.523 34 108 34H21C15.4772 34 11 29.5228 11 24V0Z" fill="#2EA850"/>
<g clip-path="url(#clip0_5365_2249)">
<path d="M35.3695 22.4448C35.0405 23.3752 34.1533 24 33.164 24H27.3365C26.654 24 26.007 23.7025 25.5608 23.1845C25.1215 22.6741 24.9267 22.0033 25.0259 21.3423C25.2621 19.7685 26.1255 18.3102 27.5931 17C26.1255 15.6898 25.2621 14.2315 25.0259 12.6577C24.9267 11.9973 25.1215 11.3259 25.5608 10.8161C26.007 10.2975 26.654 10 27.3365 10H33.164C34.1533 10 35.0405 10.6247 35.3695 11.5552C35.4775 11.8591 35.3182 12.1922 35.0149 12.2995C34.711 12.4086 34.3779 12.2482 34.2705 11.9448C34.1055 11.4793 33.661 11.1667 33.1645 11.1667H27.3365C26.994 11.1667 26.6685 11.3166 26.4451 11.5768C26.2246 11.8328 26.1307 12.1548 26.1803 12.4838C26.399 13.9416 27.3015 15.3072 28.8625 16.5427C29.0025 16.6529 29.0841 16.8221 29.0841 17C29.0841 17.1779 29.0025 17.3471 28.8625 17.4573C27.3015 18.6928 26.399 20.0578 26.1803 21.5156C26.1307 21.8446 26.2246 22.1672 26.4451 22.4233C26.6691 22.6834 26.994 22.8333 27.3365 22.8333H33.164C33.661 22.8333 34.1049 22.5207 34.27 22.0557C34.3779 21.7518 34.7121 21.5914 35.0143 21.7011C35.3182 21.8084 35.4769 22.1421 35.369 22.4454L35.3695 22.4448ZM30.6154 18.134L30.9117 18.3702C31.5954 18.9139 32.5025 19.7883 32.9382 20.864C33.0111 21.0442 32.9895 21.2484 32.881 21.4094C32.7725 21.5698 32.5917 21.6667 32.3975 21.6667H28.103C27.9093 21.6667 27.7279 21.5698 27.6194 21.4094C27.5109 21.249 27.4893 21.0448 27.5616 20.8652C27.9968 19.7842 28.9033 18.9133 29.587 18.3726L29.8903 18.1328C30.1026 17.9643 30.403 17.9648 30.6154 18.134ZM30.2496 19.3357C29.8815 19.6326 29.4499 20.0322 29.1034 20.5H31.3947C31.0482 20.0345 30.6177 19.6343 30.2496 19.3357ZM39.0002 17.0006C39.0002 18.9308 37.4305 20.5006 35.5002 20.5006C33.57 20.5006 32.0002 18.9308 32.0002 17.0006C32.0002 15.0703 33.57 13.5006 35.5002 13.5006C37.4305 13.5006 39.0002 15.0703 39.0002 17.0006ZM37.8335 17.0006C37.8335 15.7137 36.787 14.6673 35.5002 14.6673C34.2134 14.6673 33.1669 15.7137 33.1669 17.0006C33.1669 18.2874 34.2134 19.3339 35.5002 19.3339C36.787 19.3339 37.8335 18.2874 37.8335 17.0006ZM36.0835 16.7591V15.8339C36.0835 15.5119 35.8228 15.2506 35.5002 15.2506C35.1776 15.2506 34.9169 15.5119 34.9169 15.8339V17.0006C34.9169 17.1552 34.9781 17.3039 35.0878 17.413L35.6711 17.9963C35.7849 18.1101 35.9342 18.1672 36.0835 18.1672C36.2329 18.1672 36.3822 18.1101 36.496 17.9963C36.724 17.7682 36.724 17.3996 36.496 17.1715L36.0835 16.7591Z" fill="white"/>
</g>
<path d="M50.1013 22.112C49.3547 22.112 48.6593 21.986 48.0153 21.734C47.3807 21.482 46.83 21.132 46.3633 20.684C45.8967 20.2267 45.5327 19.6947 45.2713 19.088C45.01 18.4813 44.8793 17.8187 44.8793 17.1C44.8793 16.3813 45.01 15.7187 45.2713 15.112C45.5327 14.5053 45.8967 13.978 46.3633 13.53C46.83 13.0727 47.3807 12.718 48.0153 12.466C48.65 12.214 49.3453 12.088 50.1013 12.088C50.848 12.088 51.534 12.214 52.1593 12.466C52.794 12.7087 53.3447 13.0587 53.8113 13.516C54.2873 13.964 54.6513 14.4913 54.9033 15.098C55.1647 15.7047 55.2953 16.372 55.2953 17.1C55.2953 17.828 55.1647 18.4953 54.9033 19.102C54.6513 19.7087 54.2873 20.2407 53.8113 20.698C53.3447 21.146 52.794 21.496 52.1593 21.748C51.534 21.9907 50.848 22.112 50.1013 22.112ZM50.1013 20.866C50.6427 20.866 51.142 20.7727 51.5993 20.586C52.066 20.3993 52.4673 20.138 52.8033 19.802C53.1487 19.4567 53.4147 19.0553 53.6013 18.598C53.7973 18.1407 53.8953 17.6413 53.8953 17.1C53.8953 16.5587 53.7973 16.0593 53.6013 15.602C53.4147 15.1447 53.1487 14.748 52.8033 14.412C52.4673 14.0667 52.066 13.8007 51.5993 13.614C51.142 13.4273 50.6427 13.334 50.1013 13.334C49.5507 13.334 49.042 13.4273 48.5753 13.614C48.118 13.8007 47.7167 14.0667 47.3713 14.412C47.026 14.748 46.7553 15.1447 46.5593 15.602C46.3727 16.0593 46.2793 16.5587 46.2793 17.1C46.2793 17.6413 46.3727 18.1407 46.5593 18.598C46.7553 19.0553 47.026 19.4567 47.3713 19.802C47.7167 20.138 48.118 20.3993 48.5753 20.586C49.042 20.7727 49.5507 20.866 50.1013 20.866ZM60.6412 14.51C61.2478 14.51 61.7798 14.6267 62.2372 14.86C62.7038 15.0933 63.0678 15.448 63.3292 15.924C63.5905 16.4 63.7212 17.002 63.7212 17.73V22H62.3772V17.884C62.3772 17.1653 62.1998 16.624 61.8452 16.26C61.4998 15.896 61.0098 15.714 60.3752 15.714C59.8992 15.714 59.4838 15.8073 59.1292 15.994C58.7745 16.1807 58.4992 16.456 58.3032 16.82C58.1165 17.184 58.0232 17.6367 58.0232 18.178V22H56.6792V14.58H57.9672V16.582L57.7572 16.05C57.9998 15.5647 58.3732 15.1867 58.8772 14.916C59.3812 14.6453 59.9692 14.51 60.6412 14.51ZM68.8965 24.8C68.2151 24.8 67.5525 24.702 66.9085 24.506C66.2738 24.3193 65.7558 24.0487 65.3545 23.694L65.9985 22.658C66.3438 22.9567 66.7685 23.19 67.2725 23.358C67.7765 23.5353 68.3038 23.624 68.8545 23.624C69.7318 23.624 70.3758 23.4187 70.7865 23.008C71.1971 22.5973 71.4025 21.972 71.4025 21.132V19.564L71.5425 18.094L71.4725 16.61V14.58H72.7465V20.992C72.7465 22.2987 72.4198 23.26 71.7665 23.876C71.1131 24.492 70.1565 24.8 68.8965 24.8ZM68.7285 21.692C68.0098 21.692 67.3658 21.5427 66.7965 21.244C66.2365 20.936 65.7885 20.5113 65.4525 19.97C65.1258 19.4287 64.9625 18.8033 64.9625 18.094C64.9625 17.3753 65.1258 16.75 65.4525 16.218C65.7885 15.6767 66.2365 15.2567 66.7965 14.958C67.3658 14.6593 68.0098 14.51 68.7285 14.51C69.3631 14.51 69.9418 14.6407 70.4645 14.902C70.9871 15.154 71.4025 15.546 71.7105 16.078C72.0278 16.61 72.1865 17.282 72.1865 18.094C72.1865 18.8967 72.0278 19.564 71.7105 20.096C71.4025 20.628 70.9871 21.0293 70.4645 21.3C69.9418 21.5613 69.3631 21.692 68.7285 21.692ZM68.8825 20.516C69.3771 20.516 69.8158 20.4133 70.1985 20.208C70.5811 20.0027 70.8798 19.718 71.0945 19.354C71.3185 18.99 71.4305 18.57 71.4305 18.094C71.4305 17.618 71.3185 17.198 71.0945 16.834C70.8798 16.47 70.5811 16.19 70.1985 15.994C69.8158 15.7887 69.3771 15.686 68.8825 15.686C68.3878 15.686 67.9445 15.7887 67.5525 15.994C67.1698 16.19 66.8665 16.47 66.6425 16.834C66.4278 17.198 66.3205 17.618 66.3205 18.094C66.3205 18.57 66.4278 18.99 66.6425 19.354C66.8665 19.718 67.1698 20.0027 67.5525 20.208C67.9445 20.4133 68.3878 20.516 68.8825 20.516ZM77.9325 22.084C77.1858 22.084 76.5231 21.9207 75.9445 21.594C75.3658 21.2673 74.9085 20.8193 74.5725 20.25C74.2365 19.6713 74.0685 19.018 74.0685 18.29C74.0685 17.5527 74.2365 16.8993 74.5725 16.33C74.9085 15.7607 75.3658 15.3173 75.9445 15C76.5231 14.6733 77.1858 14.51 77.9325 14.51C78.6698 14.51 79.3278 14.6733 79.9065 15C80.4945 15.3173 80.9518 15.7607 81.2785 16.33C81.6145 16.89 81.7825 17.5433 81.7825 18.29C81.7825 19.0273 81.6145 19.6807 81.2785 20.25C80.9518 20.8193 80.4945 21.2673 79.9065 21.594C79.3278 21.9207 78.6698 22.084 77.9325 22.084ZM77.9325 20.908C78.4085 20.908 78.8331 20.8007 79.2065 20.586C79.5891 20.3713 79.8878 20.068 80.1025 19.676C80.3171 19.2747 80.4245 18.8127 80.4245 18.29C80.4245 17.758 80.3171 17.3007 80.1025 16.918C79.8878 16.526 79.5891 16.2227 79.2065 16.008C78.8331 15.7933 78.4085 15.686 77.9325 15.686C77.4565 15.686 77.0318 15.7933 76.6585 16.008C76.2851 16.2227 75.9865 16.526 75.7625 16.918C75.5385 17.3007 75.4265 17.758 75.4265 18.29C75.4265 18.8127 75.5385 19.2747 75.7625 19.676C75.9865 20.068 76.2851 20.3713 76.6585 20.586C77.0318 20.8007 77.4565 20.908 77.9325 20.908ZM83.0812 22V14.58H84.4252V22H83.0812ZM83.7532 13.152C83.4919 13.152 83.2725 13.068 83.0952 12.9C82.9272 12.732 82.8432 12.5267 82.8432 12.284C82.8432 12.032 82.9272 11.822 83.0952 11.654C83.2725 11.486 83.4919 11.402 83.7532 11.402C84.0145 11.402 84.2292 11.486 84.3972 11.654C84.5745 11.8127 84.6632 12.0133 84.6632 12.256C84.6632 12.508 84.5792 12.7227 84.4112 12.9C84.2432 13.068 84.0239 13.152 83.7532 13.152ZM90.3933 14.51C91 14.51 91.532 14.6267 91.9893 14.86C92.456 15.0933 92.82 15.448 93.0813 15.924C93.3427 16.4 93.4733 17.002 93.4733 17.73V22H92.1293V17.884C92.1293 17.1653 91.952 16.624 91.5973 16.26C91.252 15.896 90.762 15.714 90.1273 15.714C89.6513 15.714 89.236 15.8073 88.8813 15.994C88.5267 16.1807 88.2513 16.456 88.0553 16.82C87.8687 17.184 87.7753 17.6367 87.7753 18.178V22H86.4313V14.58H87.7193V16.582L87.5093 16.05C87.752 15.5647 88.1253 15.1867 88.6293 14.916C89.1333 14.6453 89.7213 14.51 90.3933 14.51ZM98.6486 24.8C97.9673 24.8 97.3046 24.702 96.6606 24.506C96.026 24.3193 95.508 24.0487 95.1066 23.694L95.7506 22.658C96.096 22.9567 96.5206 23.19 97.0246 23.358C97.5286 23.5353 98.056 23.624 98.6066 23.624C99.484 23.624 100.128 23.4187 100.539 23.008C100.949 22.5973 101.155 21.972 101.155 21.132V19.564L101.295 18.094L101.225 16.61V14.58H102.499V20.992C102.499 22.2987 102.172 23.26 101.519 23.876C100.865 24.492 99.9086 24.8 98.6486 24.8ZM98.4806 21.692C97.762 21.692 97.118 21.5427 96.5486 21.244C95.9886 20.936 95.5406 20.5113 95.2046 19.97C94.878 19.4287 94.7146 18.8033 94.7146 18.094C94.7146 17.3753 94.878 16.75 95.2046 16.218C95.5406 15.6767 95.9886 15.2567 96.5486 14.958C97.118 14.6593 97.762 14.51 98.4806 14.51C99.1153 14.51 99.694 14.6407 100.217 14.902C100.739 15.154 101.155 15.546 101.463 16.078C101.78 16.61 101.939 17.282 101.939 18.094C101.939 18.8967 101.78 19.564 101.463 20.096C101.155 20.628 100.739 21.0293 100.217 21.3C99.694 21.5613 99.1153 21.692 98.4806 21.692ZM98.6346 20.516C99.1293 20.516 99.568 20.4133 99.9506 20.208C100.333 20.0027 100.632 19.718 100.847 19.354C101.071 18.99 101.183 18.57 101.183 18.094C101.183 17.618 101.071 17.198 100.847 16.834C100.632 16.47 100.333 16.19 99.9506 15.994C99.568 15.7887 99.1293 15.686 98.6346 15.686C98.14 15.686 97.6966 15.7887 97.3046 15.994C96.922 16.19 96.6186 16.47 96.3946 16.834C96.18 17.198 96.0726 17.618 96.0726 18.094C96.0726 18.57 96.18 18.99 96.3946 19.354C96.6186 19.718 96.922 20.0027 97.3046 20.208C97.6966 20.4133 98.14 20.516 98.6346 20.516Z" fill="white"/>
<path d="M118 11C118 4.92487 122.925 0 129 0H118V11Z" fill="#2EA850"/>
<defs>
<clipPath id="clip0_5365_2249">
<rect width="14" height="14" fill="white" transform="translate(25 10)"/>
</clipPath>
</defs>
</svg>
